<?xml version="1.0" encoding="iso-8859-1"?>
<!-- Generator: Adobe Illustrator 16.0.0, SVG Export Plug-In . SVG Version: 6.00 Build 0)  -->
<!DOCTYPE svg PUBLIC "-//W3C//DTD SVG 1.1//EN" "http://www.w3.org/Graphics/SVG/1.1/DTD/svg11.dtd">
<svg version="1.1" id="Capa_1" xmlns="http://www.w3.org/2000/svg" xmlns:xlink="http://www.w3.org/1999/xlink" x="0px" y="0px"
	 width="36.071px" height="36.071px" viewBox="0 0 36.071 36.071" style="enable-background:new 0 0 36.071 36.071;"
	 fill="#ecf0f3"
	 xml:space="preserve">
<g>
	<path d="M33.522,19.576l-8.046,2.157l-0.086-0.052v-7.294l0.088-0.051l8.044,2.154c0.045,0.01,0.091,0.018,0.136,0.018
		c0.231,0,0.44-0.153,0.501-0.387c0.075-0.278-0.089-0.562-0.369-0.638L26.752,13.6l1.613-0.933l1.271,0.732l1.793-1.033V10.9
		l2.032-1.174c0.248-0.145,0.334-0.461,0.191-0.712c-0.145-0.248-0.464-0.335-0.712-0.19l-2.033,1.174l-1.271-0.733l-1.791,1.033
		v1.467l-1.612,0.933l1.888-7.037c0.072-0.28-0.092-0.563-0.369-0.639c-0.275-0.068-0.562,0.091-0.638,0.369l-2.153,8.044
		l-0.086,0.05l-6.32-3.646V9.734l5.886-5.888c0.204-0.202,0.204-0.533,0-0.737c-0.202-0.202-0.532-0.202-0.736,0l-5.15,5.151V6.4
		l1.271-0.734V3.6l-1.271-0.735V0.521C18.555,0.233,18.321,0,18.034,0c-0.288,0-0.521,0.233-0.521,0.521v2.346l-1.271,0.734v2.065
		l1.271,0.734v1.862l-5.151-5.151c-0.203-0.202-0.533-0.202-0.736,0c-0.204,0.203-0.204,0.534,0,0.736l5.887,5.888v0.103
		l-6.319,3.646l-0.085-0.05L8.953,5.39C8.878,5.112,8.594,4.953,8.315,5.021C8.037,5.097,7.873,5.383,7.947,5.66l1.886,7.037
		l-1.612-0.933v-1.466L6.429,9.265L5.158,9.998L3.126,8.824c-0.249-0.148-0.568-0.061-0.712,0.19
		c-0.143,0.25-0.058,0.568,0.191,0.713l2.032,1.174v1.467l1.792,1.033l1.272-0.732l1.614,0.933l-7.039,1.884
		c-0.278,0.075-0.443,0.361-0.369,0.638c0.062,0.234,0.272,0.387,0.502,0.387c0.045,0,0.089-0.008,0.135-0.018l8.045-2.154
		l0.087,0.051v7.293l-0.087,0.052l-8.045-2.157c-0.276-0.065-0.562,0.092-0.637,0.368c-0.074,0.281,0.09,0.563,0.369,0.638
		l7.039,1.888L7.701,23.4l-1.272-0.734l-1.792,1.035l0.001,1.469l-2.034,1.174c-0.25,0.144-0.334,0.461-0.191,0.712
		c0.097,0.165,0.272,0.26,0.452,0.26c0.088,0,0.178-0.021,0.261-0.069l2.033-1.174l1.271,0.732l1.792-1.033v-1.467l1.611-0.932
		L7.945,30.41c-0.074,0.278,0.091,0.563,0.369,0.639c0.044,0.011,0.09,0.017,0.135,0.017c0.23,0,0.44-0.152,0.502-0.385l2.155-8.045
		l0.088-0.051l6.317,3.646v0.102l-5.887,5.89c-0.204,0.202-0.204,0.533,0,0.736c0.203,0.203,0.533,0.203,0.736,0l5.151-5.153v1.864
		l-1.271,0.732v2.067l1.271,0.734v2.346c0,0.288,0.233,0.521,0.521,0.521c0.287,0,0.521-0.233,0.521-0.521v-2.346l1.271-0.734
		v-2.067l-1.271-0.732v-1.864l5.15,5.153c0.103,0.103,0.236,0.153,0.368,0.153c0.133,0,0.269-0.051,0.369-0.153
		c0.204-0.203,0.204-0.534,0-0.736l-5.886-5.89v-0.102l6.317-3.646l0.086,0.051l2.154,8.045c0.062,0.232,0.274,0.385,0.502,0.385
		c0.045,0,0.09-0.006,0.136-0.017c0.279-0.075,0.442-0.361,0.369-0.639l-1.887-7.037l1.613,0.932v1.467l1.793,1.033l1.271-0.732
		l2.033,1.174c0.083,0.049,0.173,0.069,0.26,0.069c0.182,0,0.356-0.095,0.453-0.26c0.144-0.249,0.059-0.568-0.19-0.712l-2.034-1.174
		l0.001-1.469l-1.794-1.035L28.367,23.4l-1.613-0.931l7.039-1.889c0.28-0.073,0.445-0.359,0.37-0.637S33.803,19.508,33.522,19.576z
		 M24.349,21.082l-5.276-3.046l5.275-3.046L24.349,21.082L24.349,21.082z M23.83,14.086l-5.277,3.047v-6.093L23.83,14.086z
		 M17.511,11.042v6.092l-5.277-3.047L17.511,11.042z M11.716,14.99l5.275,3.046l-5.275,3.046V14.99z M12.236,21.983l5.275-3.046
		v6.089L12.236,21.983z M18.553,25.028v-6.091l5.275,3.046L18.553,25.028z"/>
</g>
<g>
</g>
<g>
</g>
<g>
</g>
<g>
</g>
<g>
</g>
<g>
</g>
<g>
</g>
<g>
</g>
<g>
</g>
<g>
</g>
<g>
</g>
<g>
</g>
<g>
</g>
<g>
</g>
<g>
</g>
</svg>
