<svg xmlns="http://www.w3.org/2000/svg" xmlns:xlink="http://www.w3.org/1999/xlink" xmlns:lucid="lucid" width="2764.39" height="1801"><g transform="translate(-430 -100)" lucid:page-tab-id="qSWqtXJKNAfC"><path d="M0 0h3677.73v2581.67H0z" fill="#fff"/><path d="M450 126c0-3.3 2.7-6 6-6h168c3.3 0 6 2.7 6 6v49.42c0 3.3-2.7 6-6 6H456c-3.3 0-6-2.7-6-6z" stroke="#5e5e5e" stroke-width="4" fill="#c1e4f7"/><use xlink:href="#a" transform="matrix(1,0,0,1,450,120) translate(44.14141975308645 38.965555555555525)"/><path d="M522.03 266c0-3.3 2.7-6 6-6h28c3.3 0 6 2.7 6 6v1508c0 3.3-2.7 6-6 6h-28c-3.3 0-6-2.7-6-6z" stroke="#5e5e5e" stroke-width="4" fill="#fff"/><path d="M540 256.5v-5.33m0-7.1V233.4m0-7.1v-10.67m0-7.1v-10.67m0-7.1v-5.34M540 256.45v2.05" stroke="#5e5e5e" stroke-width="4" fill="none"/><path d="M542 185.47h-4v-2.05h4" fill="#5e5e5e"/><path d="M776.07 126c0-3.3 2.68-6 6-6h241.1c3.32 0 6 2.7 6 6v49.42c0 3.3-2.68 6-6 6h-241.1c-3.32 0-6-2.7-6-6z" stroke="#5e5e5e" stroke-width="4" fill="#c1e4f7"/><use xlink:href="#b" transform="matrix(1,0,0,1,776.0679347826083,120) translate(33.598827160493904 38.965555555555525)"/><path d="M1182.38 276.9c0-3.3 2.68-6 6-6h148.34c3.32 0 6 2.7 6 6v62c0 3.32-2.68 6-6 6h-148.34c-3.32 0-6-2.68-6-6z" stroke="#5e5e5e" stroke-width="4" fill="#ffdba9"/><use xlink:href="#c" transform="matrix(1,0,0,1,1182.3768115942012,270.9069767441863) translate(45.42506172839508 46.240277777777756)"/><path d="M1375.45 126c0-3.3 2.7-6 6-6h162c3.33 0 6 2.7 6 6v49.42c0 3.3-2.67 6-6 6h-162c-3.3 0-6-2.7-6-6z" stroke="#5e5e5e" stroke-width="4" fill="#c1e4f7"/><use xlink:href="#d" transform="matrix(1,0,0,1,1375.4522781417509,120) translate(25.814259259259323 38.965555555555525)"/><path d="M882.62 270c0-3.3 2.7-6 6-6h28c3.32 0 6 2.7 6 6v84c0 3.3-2.68 6-6 6h-28c-3.3 0-6-2.7-6-6z" stroke="#5e5e5e" stroke-width="4" fill="#fff"/><path d="M902.62 185.42v5.48m0 7.3v10.96m0 7.3v5.48l-.3.72-.7.3-.73.3-.3.7v5.5m0 7.3v10.96m0 7.3v5.48" stroke="#5e5e5e" stroke-width="4" fill="none"/><path d="M904.62 185.47h-4v-2.05h4" fill="#5e5e5e"/><path d="M900.6 260.45v2.05M926.62 307.9h250.12" stroke="#5e5e5e" stroke-width="4" fill="none"/><path d="M926.67 309.9h-2.05v-4h2.05" fill="#5e5e5e"/><path d="M1159.23 318.1l17.22-10.2-17.22-10.17" stroke="#5e5e5e" stroke-width="4" fill="none"/><use xlink:href="#e" transform="matrix(1,0,0,1,951.7060929235728,263.9069767441865) translate(0.0049999999999954525 26.666666666666657)"/><path d="M1703.67 126c0-3.3 2.7-6 6-6h173.3c3.3 0 6 2.7 6 6v49.42c0 3.3-2.7 6-6 6h-173.3c-3.3 0-6-2.7-6-6z" stroke="#5e5e5e" stroke-width="4" fill="#c1e4f7"/><use xlink:href="#f" transform="matrix(1,0,0,1,1703.6739130434767,120) translate(15.987098765432174 38.965555555555525)"/><path d="M2097.64 454.14c0-3.3 2.7-6 6-6h142.33c3.3 0 6 2.7 6 6v64.28c0 3.3-2.7 6-6 6h-142.33c-3.3 0-6-2.7-6-6z" stroke="#5e5e5e" stroke-width="4" fill="#ffdba9"/><use xlink:href="#g" transform="matrix(1,0,0,1,2097.6413043478196,448.1395348837209) translate(31.252222222222244 46.615277777777756)"/><path d="M1444.5 416c0-3.3 2.7-6 6-6h28c3.33 0 6 2.7 6 6v58c0 3.3-2.67 6-6 6h-28c-3.3 0-6-2.7-6-6z" stroke="#5e5e5e" stroke-width="4" fill="#fff"/><path d="M1462.46 185.42v6m0 8.03v12.04m0 8v12.04m0 8.02v12.03m0 8v12.05m0 8.02v12.03m0 8.02v12.03m0 8.02v12.03m0 8.03v12.03m0 8.02v12.03m0 8.03v12.03m0 8.02V406" stroke="#5e5e5e" stroke-width="4" fill="none"/><path d="M1464.46 185.47h-4v-2.05h4M1464.46 408h-4v-2.05h4" fill="#5e5e5e"/><path d="M565.53 293.33h156.33c.12 0 .22-.1.22-.2 0-.13.1-.23.2-.23h135.6" stroke="#5e5e5e" stroke-width="4" fill="none"/><path d="M565.58 295.33h-1.55v-4h1.55" fill="#5e5e5e"/><path d="M874.15 292.9l-14.26 4.63v-9.27z" stroke="#5e5e5e" stroke-width="4" fill="#5e5e5e"/><use xlink:href="#h" transform="matrix(1,0,0,1,681.7570141125011,246.23750683493455) translate(0.005000000000002558 28.444444444444436)"/><path d="M565.53 440.73h437.44c.03 0 .05-.02.05-.05 0-.03.02-.05.05-.05h416.7" stroke="#5e5e5e" stroke-width="4" fill="none"/><path d="M565.58 442.73h-1.55v-4h1.55" fill="#5e5e5e"/><path d="M1436.04 440.63l-14.26 4.63V436z" stroke="#5e5e5e" stroke-width="4" fill="#5e5e5e"/><use xlink:href="#i" transform="matrix(1,0,0,1,986.3334652471398,393.9619357914656) translate(0.005000000000002558 28.444444444444436)"/><path d="M1796.32 185.42v5.8m0 7.76v11.63m0 7.77V230m0 7.75v11.63m0 7.75v11.63m0 7.75v11.64m0 7.75v11.62m0 7.76v11.63m0 7.76v11.63m0 7.74v11.63m0 7.75v11.63m0 7.75v11.63m0 7.76v5.8" stroke="#5e5e5e" stroke-width="4" fill="none"/><path d="M1798.32 185.47h-4v-2.05h4" fill="#5e5e5e"/><path d="M1796.32 417.95V420" stroke="#5e5e5e" stroke-width="4" fill="none"/><path d="M1778.35 426c0-3.3 2.68-6 6-6h28c3.3 0 6 2.7 6 6v448c0 3.3-2.7 6-6 6h-28c-3.32 0-6-2.7-6-6z" stroke="#5e5e5e" stroke-width="4" fill="#fff"/><path d="M1488.5 460.35h143c.1 0 .18-.08.18-.18 0-.1.08-.17.18-.17h122.25" stroke="#5e5e5e" stroke-width="4" fill="none"/><path d="M1488.57 462.35h-2.06v-4h2.07" fill="#5e5e5e"/><path d="M1770.38 460l-14.27 4.64v-9.28z" stroke="#5e5e5e" stroke-width="4" fill="#5e5e5e"/><use xlink:href="#j" transform="matrix(1,0,0,1,1508.117429464133,408.69884974255984) translate(0.0049999999999954525 28.444444444444436)"/><use xlink:href="#k" transform="matrix(1,0,0,1,1508.117429464133,408.69884974255984) translate(179.36302469135796 28.444444444444436)"/><path d="M2464.33 556.27c0-3.3 2.68-6 6-6h192.36c3.3 0 6 2.7 6 6v66.56c0 3.3-2.7 6-6 6h-192.37c-3.32 0-6-2.7-6-6z" stroke="#5e5e5e" stroke-width="4" fill="#ffdba9"/><use xlink:href="#l" transform="matrix(1,0,0,1,2464.32608695651,550.2745636472786) translate(51.484320987654364 48.76805555555553)"/><path d="M1822.35 486.28H2092" stroke="#5e5e5e" stroke-width="4" fill="none"/><path d="M1822.4 488.28h-2.05v-4h2.05" fill="#5e5e5e"/><path d="M2074.5 496.46l17.2-10.18-17.2-10.18" stroke="#5e5e5e" stroke-width="4" fill="none"/><use xlink:href="#m" transform="matrix(1,0,0,1,1864.2167874396096,439.61240310077517) translate(0.0049999999999954525 28.444444444444436)"/><path d="M1822.35 585.2h636.34" stroke="#5e5e5e" stroke-width="4" fill="none"/><path d="M1822.4 587.2h-2.05v-4h2.05" fill="#5e5e5e"/><path d="M2441.18 595.37l17.22-10.18-17.22-10.2" stroke="#5e5e5e" stroke-width="4" fill="none"/><use xlink:href="#m" transform="matrix(1,0,0,1,1870.3892885949617,538.5271317829466) translate(0.0049999999999954525 28.444444444444436)"/><path d="M1242.55 507.42c0-3.32 2.7-6 6-6h28c3.3 0 6 2.68 6 6V1714c0 3.3-2.7 6-6 6h-28c-3.3 0-6-2.7-6-6z" stroke="#5e5e5e" stroke-width="4" fill="#fff"/><path d="M1262.55 497.92v-5.6m0-7.44V473.7m0-7.45v-11.17m0-7.45v-11.18m0-7.45v-11.18m0-7.45V399.2m0-7.45v-11.18m0-7.45v-11.17m0-7.45v-5.6M1262.55 497.87v2.05" stroke="#5e5e5e" stroke-width="4" fill="none"/><path d="M1264.55 348.96h-4v-2.05h4" fill="#5e5e5e"/><path d="M2970.2 126c0-3.3 2.7-6 6-6h192.2c3.3 0 6 2.7 6 6v49.42c0 3.3-2.7 6-6 6h-192.2c-3.3 0-6-2.7-6-6z" stroke="#5e5e5e" stroke-width="4" fill="#c1e4f7"/><use xlink:href="#n" transform="matrix(1,0,0,1,2970.206521739139,120) translate(54.844506172839544 38.965555555555525)"/><path d="M3052.3 728.8c0-3.32 2.68-6 6-6h28c3.3 0 6 2.68 6 6v88c0 3.3-2.7 6-6 6h-28c-3.32 0-6-2.7-6-6z" stroke="#5e5e5e" stroke-width="4" fill="#fff"/><path d="M3072.3 185.42v6.13m0 8.17v12.25m0 8.17v12.26m0 8.17v12.25m0 8.17v12.25m0 8.17v12.26m0 8.17v12.25m0 8.17v12.26m0 8.17v12.26m0 8.17v12.25m0 8.17v12.26m0 8.18v12.25m0 8.17v12.26m0 8.17v12.26m0 8.16v12.25m0 8.18v12.26m0 8.17v12.27m0 8.17v12.25m0 8.16v12.26m0 8.17v12.24m0 8.17v12.27m0 8.17v12.26m0 8.17v12.25m0 8.17v12.25m0 8.17v12.25m0 8.17v12.26m0 8.17v6.13" stroke="#5e5e5e" stroke-width="4" fill="none"/><path d="M3074.3 185.47h-4v-2.05h4" fill="#5e5e5e"/><path d="M3072.3 716.45v2.05M1822.35 739.65h1205.2" stroke="#5e5e5e" stroke-width="4" fill="none"/><path d="M1822.4 741.65h-2.05v-4h2.05" fill="#5e5e5e"/><path d="M3043.82 739.65l-14.26 4.63V735z" stroke="#5e5e5e" stroke-width="4" fill="#5e5e5e"/><use xlink:href="#o" transform="matrix(1,0,0,1,2233.27157790399,692.9786844040685) translate(0.0049999999999954525 28.444444444444436)"/><path d="M3048.3 806.22H1843.1" stroke="#5e5e5e" stroke-width="4" fill="none"/><path d="M3050.3 808.22h-2.05v-4h2.05" fill="#5e5e5e"/><path d="M1826.82 806.22l14.27-4.64v9.27z" stroke="#5e5e5e" stroke-width="4" fill="#5e5e5e"/><use xlink:href="#p" transform="matrix(1,0,0,1,2307.3846135783324,759.5503875969038) translate(0.005000000000002558 28.444444444444436)"/><path d="M1774.85 839.9H1307.3" stroke="#5e5e5e" stroke-width="4" fill="none"/><path d="M1776.35 841.9h-1.55v-4h1.55" fill="#5e5e5e"/><path d="M1291.02 839.9l14.27-4.65v9.27z" stroke="#5e5e5e" stroke-width="4" fill="#5e5e5e"/><use xlink:href="#q" transform="matrix(1,0,0,1,1424.7733494363918,793.2202856627033) translate(0.0049999999999954525 28.444444444444436)"/><use xlink:href="#r" transform="matrix(1,0,0,1,1424.7733494363918,793.2202856627033) translate(94.52351851851849 28.444444444444436)"/><use xlink:href="#s" transform="matrix(1,0,0,1,1424.7733494363918,793.2202856627033) translate(136.89388888888885 28.444444444444436)"/><path d="M3052.3 922.73c0-3.32 2.68-6 6-6h28c3.3 0 6 2.68 6 6v48c0 3.3-2.7 6-6 6h-28c-3.32 0-6-2.7-6-6z" stroke="#5e5e5e" stroke-width="4" fill="#fff"/><path d="M3072.3 826.8v6.44m0 8.6v12.88m0 8.6v12.88m0 8.6v12.9m0 8.58v6.45" stroke="#5e5e5e" stroke-width="4" fill="none"/><path d="M3074.3 826.84h-4v-2.05h4M3074.3 914.73h-4v-2.05h4" fill="#5e5e5e"/><path d="M1286.55 925.58h1741.01" stroke="#5e5e5e" stroke-width="4" fill="none"/><path d="M1286.6 927.58h-2.05v-4h2.05" fill="#5e5e5e"/><path d="M3043.82 925.58l-14.26 4.64v-9.27z" stroke="#5e5e5e" stroke-width="4" fill="#5e5e5e"/><use xlink:href="#t" transform="matrix(1,0,0,1,2262.511641342514,878.9137520600683) translate(0.0049999999999954525 28.444444444444436)"/><path d="M2174.8 528.42v5.85m0 7.8v11.7m0 7.8v11.7m0 7.8v11.7m0 7.8v11.7m0 7.8v11.72m0 7.8v11.7m0 7.8v11.7m0 7.8v11.7m0 7.8v11.7m0 7.8v11.7m0 7.8v11.7m0 7.8v11.71m0 7.8v11.7m0 7.8v11.72m0 7.8v11.7m0 7.8v11.7m0 7.8v11.7m0 7.8v11.7m0 7.8v11.7m0 7.8v11.72m0 7.8v11.7m0 7.8v11.7m0 7.8v11.7m0 7.8v5.86" stroke="#5e5e5e" stroke-width="4" fill="none"/><path d="M2176.8 528.47h-4v-2.05h4" fill="#5e5e5e"/><path d="M2174.8 996.45v2.05M2566.5 632.83v5.85m0 7.8v11.7m0 7.8v11.7m0 7.82v11.7m0 7.8v11.7m0 7.8v11.72m0 7.8v11.7m0 7.8v11.72m0 7.8v11.7m0 7.8v11.7m0 7.82v11.7m0 7.8v11.7m0 7.8v11.72m0 7.8v11.7m0 7.8v11.72m0 7.8v11.7m0 7.8v11.7m0 7.82v11.7m0 7.8V984l-.12.3-.3.13-.3.14-.14.3v5.86m0 7.8v11.7m0 7.8v11.72m0 7.8v11.7m0 7.8v11.7m0 7.82v11.7m0 7.8v11.7m0 7.8v11.72m0 7.8v11.7m0 7.8v11.72m0 7.8v11.7m0 7.8v11.7m0 7.82v11.7m0 7.8v11.7m0 7.8v11.72m0 7.8v11.7m0 7.8v11.72m0 7.8v11.7m0 7.8v5.86" stroke="#5e5e5e" stroke-width="4" fill="none"/><path d="M2568.5 632.88h-4v-2.05h4M2567.64 1338h-4v-2.05h4" fill="#5e5e5e"/><path d="M2155.67 1006c0-3.3 2.7-6 6-6h28c3.32 0 6 2.7 6 6v188c0 3.3-2.68 6-6 6h-28c-3.3 0-6-2.7-6-6zM2546.5 1346c0-3.3 2.7-6 6-6h28c3.32 0 6 2.7 6 6v188c0 3.3-2.68 6-6 6h-28c-3.3 0-6-2.7-6-6z" stroke="#5e5e5e" stroke-width="4" fill="#fff"/><path d="M2151.67 1042.7h-432.45c-.06 0-.1.05-.1.1 0 .07-.06.1-.12.1h-411.7" stroke="#5e5e5e" stroke-width="4" fill="none"/><path d="M2153.67 1044.7h-2.05v-4h2.05" fill="#5e5e5e"/><path d="M1291.02 1042.9l14.27-4.62v9.27z" stroke="#5e5e5e" stroke-width="4" fill="#5e5e5e"/><use xlink:href="#u" transform="matrix(1,0,0,1,1532.2452186831622,996.0311640579862) translate(0.0049999999999954525 28.444444444444436)"/><use xlink:href="#r" transform="matrix(1,0,0,1,1532.2452186831622,996.0311640579862) translate(179.36302469135796 28.444444444444436)"/><use xlink:href="#v" transform="matrix(1,0,0,1,1532.2452186831622,996.0311640579862) translate(221.73339506172832 28.444444444444436)"/><path d="M2175.67 1086c0-3.3 2.7-6 6-6h28c3.32 0 6 2.7 6 6v48c0 3.3-2.68 6-6 6h-28c-3.3 0-6-2.7-6-6z" stroke="#5e5e5e" stroke-width="4" fill="#fff"/><path d="M2199.67 1048.27h52c3.32 0 6 2.7 6 6v43.6c0 3.3-2.68 6-6 6h-11.26" stroke="#5e5e5e" stroke-width="4" fill="none"/><path d="M2199.73 1050.27h-2.06v-4h2.06" fill="#5e5e5e"/><path d="M2224.15 1103.86l14.26-4.63v9.27z" stroke="#5e5e5e" stroke-width="4" fill="#5e5e5e"/><use xlink:href="#w" transform="matrix(1,0,0,1,2265.673913043473,1065.0294346077635) translate(0.005000000000002558 28.444444444444436)"/><path d="M2171.78 1134.65h-442.33c-.16 0-.3.12-.3.28 0 .15-.1.28-.27.28h-421.6" stroke="#5e5e5e" stroke-width="4" fill="none"/><path d="M2173.67 1134.27l.65 2.38h-2.6v-4h1.95" fill="#5e5e5e"/><path d="M1291.02 1135.2l14.27-4.62v9.27z" stroke="#5e5e5e" stroke-width="4" fill="#5e5e5e"/><use xlink:href="#x" transform="matrix(1,0,0,1,1611.4730478855402,1087.9805361702038) translate(0.0049999999999954525 28.444444444444436)"/><use xlink:href="#r" transform="matrix(1,0,0,1,1611.4730478855402,1087.9805361702038) translate(118.02969135802464 28.444444444444436)"/><use xlink:href="#s" transform="matrix(1,0,0,1,1611.4730478855402,1087.9805361702038) translate(160.40006172839497 28.444444444444436)"/><path d="M3052.3 1226c0-3.3 2.68-6 6-6h28c3.3 0 6 2.7 6 6v148c0 3.3-2.7 6-6 6h-28c-3.32 0-6-2.7-6-6z" stroke="#5e5e5e" stroke-width="4" fill="#fff"/><path d="M3072.3 980.73v5.88m0 7.85v11.77m0 7.84v11.76m0 7.84v11.77m0 7.84v11.76m0 7.85v11.76m0 7.84v11.77m0 7.84v11.75m0 7.84v11.76m0 7.84v11.76m0 7.85v11.77m0 7.84v11.78m0 7.84v5.88" stroke="#5e5e5e" stroke-width="4" fill="none"/><path d="M3074.3 980.78h-4v-2.05h4M3074.3 1218h-4v-2.05h4" fill="#5e5e5e"/><path d="M1286.55 1277.33h1741" stroke="#5e5e5e" stroke-width="4" fill="none"/><path d="M1286.6 1279.33h-2.05v-4h2.05" fill="#5e5e5e"/><path d="M3043.82 1277.33l-14.26 4.64v-9.27z" stroke="#5e5e5e" stroke-width="4" fill="#5e5e5e"/><use xlink:href="#y" transform="matrix(1,0,0,1,1530.5918548712207,1231.0932800000166) translate(0.0049999999999954525 28.160035555555545)"/><path d="M3048.3 1358.65h-437.05" stroke="#5e5e5e" stroke-width="4" fill="none"/><path d="M3050.3 1360.65h-2.05v-4h2.05" fill="#5e5e5e"/><path d="M2594.98 1358.65l14.27-4.64v9.28z" stroke="#5e5e5e" stroke-width="4" fill="#5e5e5e"/><use xlink:href="#z" transform="matrix(1,0,0,1,2600.8836553945303,1307.347345036805) translate(0.0049999999999954525 28.444444444444436)"/><use xlink:href="#r" transform="matrix(1,0,0,1,2600.8836553945303,1307.347345036805) translate(242.67166666666662 28.444444444444436)"/><use xlink:href="#A" transform="matrix(1,0,0,1,2600.8836553945303,1307.347345036805) translate(285.04203703703695 28.444444444444436)"/><path d="M2151.94 1195.24h-792.7c-.27 0-.5-.23-.5-.52 0-.3-.24-.52-.53-.52H586.28" stroke="#5e5e5e" stroke-width="4" fill="none"/><path d="M2153.67 1194.27l.8 2.97h-2.58v-4h1.77" fill="#5e5e5e"/><path d="M570 1194.2l14.27-4.64v9.27z" stroke="#5e5e5e" stroke-width="4" fill="#5e5e5e"/><use xlink:href="#B" transform="matrix(1,0,0,1,665.0269680801438,1147.5326310371333) translate(0.005000000000002558 28.444444444444436)"/><path d="M2575.17 1426c0-3.3 2.68-6 6-6h28c3.3 0 6 2.7 6 6v48c0 3.3-2.7 6-6 6h-28c-3.32 0-6-2.7-6-6z" stroke="#5e5e5e" stroke-width="4" fill="#fff"/><path d="M2590.5 1400.43h60.67c3.3 0 6 2.7 6 6v23.24c0 3.32-2.7 6-6 6h-11.27" stroke="#5e5e5e" stroke-width="4" fill="none"/><path d="M2590.56 1402.43h-2.05v-4h2.06" fill="#5e5e5e"/><path d="M2623.64 1435.67l14.26-4.63v9.27z" stroke="#5e5e5e" stroke-width="4" fill="#5e5e5e"/><use xlink:href="#w" transform="matrix(1,0,0,1,2665.1666666666597,1403.629599572292) translate(0.005000000000002558 28.444444444444436)"/><path d="M2542.6 1534.6H586.77" stroke="#5e5e5e" stroke-width="4" fill="none"/><path d="M2544.5 1534.27l.64 2.34h-2.6v-4h1.97" fill="#5e5e5e"/><path d="M570.5 1534.6l14.27-4.62v9.27z" stroke="#5e5e5e" stroke-width="4" fill="#5e5e5e"/><use xlink:href="#B" transform="matrix(1,0,0,1,667.6508324183674,1487.9479497120924) translate(0.005000000000002558 28.444444444444436)"/><path d="M3052.3 1626c0-3.3 2.68-6 6-6h28c3.3 0 6 2.7 6 6v68c0 3.3-2.7 6-6 6h-28c-3.32 0-6-2.7-6-6z" stroke="#5e5e5e" stroke-width="4" fill="#fff"/><path d="M3072.3 1616v-5.8m0-7.73v-11.6m0-7.74v-11.6m0-7.73v-11.6m0-7.73v-11.6m0-7.74v-11.6m0-7.73v-11.6m0-7.73v-11.6m0-7.74v-11.6m0-7.73v-11.6m0-7.73v-11.6m0-7.74v-11.6m0-7.73v-5.8" stroke="#5e5e5e" stroke-width="4" fill="none"/><path d="M3074.3 1618h-4v-2.05h4" fill="#5e5e5e"/><path d="M3072.3 1384.05V1382M1286.55 1637.3h1741" stroke="#5e5e5e" stroke-width="4" fill="none"/><path d="M1286.6 1639.3h-2.05v-4h2.05" fill="#5e5e5e"/><path d="M3043.82 1637.3l-14.26 4.64v-9.27z" stroke="#5e5e5e" stroke-width="4" fill="#5e5e5e"/><use xlink:href="#C" transform="matrix(1,0,0,1,1699.7752360317363,1590.639882373541) translate(0.0049999999999954525 28.444444444444436)"/><path d="M1238.55 1683.9H586.76" stroke="#5e5e5e" stroke-width="4" fill="none"/><path d="M1240.55 1685.9h-2.05v-4h2.05" fill="#5e5e5e"/><path d="M570.5 1683.9l14.27-4.63v9.27z" stroke="#5e5e5e" stroke-width="4" fill="#5e5e5e"/><use xlink:href="#B" transform="matrix(1,0,0,1,662.1701390609035,1637.2383272299635) translate(0.005000000000002558 28.444444444444436)"/><path d="M902.62 364v5.98m0 7.96l-.02 11.96m0 7.97l-.02 11.95m0 7.97l-.02 11.94m0 7.97l-.02 11.96m0 7.97l-.02 11.95m0 7.97l-.02 11.95m0 7.97l-.02 11.95m0 7.97l-.02 11.94m0 7.97v11.97m-.02 7.96v11.96m-.02 7.96v11.95m-.02 7.98v11.95m-.02 7.97v11.95m-.02 7.97v11.95m-.02 7.97v11.95m-.02 7.96v11.95m0 7.98l-.03 11.95m0 7.97l-.03 11.96m0 7.96v11.96m-.02 7.96v11.96m-.02 7.97v11.95m-.02 7.97v11.94m0 7.97l-.02 11.96m0 7.97l-.02 11.95m0 7.97l-.02 11.95m0 7.97l-.02 11.95m0 7.97l-.02 11.94m0 7.97v11.97m-.02 7.96v11.96m-.02 7.96v11.95m-.02 7.98v11.95m-.02 7.97v11.95m-.02 7.97v11.95m-.02 7.97v11.95m-.02 7.96v11.95m0 7.98l-.03 11.95m0 7.97v11.96m-.02 7.96v11.96m0 7.96l-.02 11.96m0 7.97l-.02 11.95m0 7.97l-.02 11.94m0 7.97l-.02 11.96m0 7.97l-.02 11.95m0 7.97l-.02 11.95m0 7.97l-.02 11.95m0 7.97v11.94m-.02 7.97v11.97m-.02 7.96v11.96m-.02 7.96v11.95m-.02 7.98v11.95m-.02 7.97v11.95m-.02 7.97v11.95m-.02 7.97v11.95m0 7.96l-.03 11.95m0 7.98l-.03 11.95m0 7.97v11.96m-.02 7.96v11.96m-.02 7.96v11.96m-.02 7.97v11.95m0 7.97l-.02 11.94m0 7.97l-.02 11.96m0 7.97l-.02 11.95m0 7.97l-.02 11.95m0 7.97l-.02 11.95m0 7.97v11.94m-.02 7.97v11.97m-.02 7.96v11.96m-.02 7.96v11.95m-.02 7.98v11.95m-.02 7.97v11.95m-.02 7.97v11.95m-.02 7.97v11.95m0 7.96l-.03 11.95m0 7.98v11.95m-.02 7.97v11.96m0 7.96l-.02 5.98" stroke="#5e5e5e" stroke-width="4" fill="none"/><path d="M904.62 364.05h-4V362h4" fill="#5e5e5e"/><path d="M901.18 1877.95v2.05M542.03 1784v5.64m0 7.52v11.28m0 7.52v11.28m0 7.52v11.28m0 7.52v11.28m0 7.52v5.64" stroke="#5e5e5e" stroke-width="4" fill="none"/><path d="M544.03 1784.05h-4V1782h4" fill="#5e5e5e"/><path d="M542.03 1877.95v2.05M1262.55 1724v5.77m0 7.7v11.55m0 7.7v11.55m0 7.7v11.55m0 7.7v11.55m0 7.7v11.55m0 7.7v11.55m0 7.7v11.55m0 7.7v5.78" stroke="#5e5e5e" stroke-width="4" fill="none"/><path d="M1264.55 1724.05h-4V1722h4" fill="#5e5e5e"/><path d="M1262.55 1877.95v2.05" stroke="#5e5e5e" stroke-width="4" fill="none"/><use xlink:href="#D" transform="matrix(1,0,0,1,1270.5507246376799,1780.9999999173228) translate(0.005 26.666666666666657)"/><path d="M3072.3 1704v5.8m0 7.73v11.6m0 7.74v11.6m0 7.73v11.6m0 7.73v11.6m0 7.74v11.6m0 7.73v11.6m0 7.73v11.6m0 7.74v11.6m0 7.73v5.8" stroke="#5e5e5e" stroke-width="4" fill="none"/><path d="M3074.3 1704.05h-4V1702h4" fill="#5e5e5e"/><path d="M3072.3 1877.95v2.05M2566.5 1544v5.9m0 7.85v11.8m0 7.85v11.8m0 7.85v11.8m0 7.84v11.78m0 7.86v11.8m0 7.85v11.78m0 7.86v11.78m0 7.86v11.8m0 7.85v11.8m0 7.85v11.78m0 7.86v11.8m0 7.85v11.8m0 7.85v11.8m0 7.84v11.8m0 7.85v11.8m0 7.86v11.8m0 7.85v5.9" stroke="#5e5e5e" stroke-width="4" fill="none"/><path d="M2568.5 1544.05h-4V1542h4" fill="#5e5e5e"/><path d="M2566.5 1877.95v2.05M2175.67 1204v5.95m0 7.93v11.9m0 7.92v11.9m0 7.92v11.9m0 7.93v11.9m0 7.92v11.9m0 7.92v11.9m0 7.92v11.9m0 7.92v11.9m0 7.92v11.9m0 7.93v11.88m0 7.93v11.9m0 7.94v11.9m0 7.92v11.9m0 7.92v11.9m0 7.93v11.9m0 7.93v11.9m0 7.92v11.9m0 7.93v11.9m0 7.92v11.9m0 7.92v11.9m0 7.93v11.9m0 7.92v11.9m0 7.92v11.9m0 7.92v11.9m0 7.92v11.9m0 7.92v11.9m0 7.93v11.88m0 7.93v11.9m0 7.94v11.9m0 7.92v11.9m0 7.92v11.9m0 7.93v11.9m0 7.93v11.9m0 7.92v5.95" stroke="#5e5e5e" stroke-width="4" fill="none"/><path d="M2177.67 1204.05h-4V1202h4" fill="#5e5e5e"/><path d="M2175.67 1877.95v2.05" stroke="#5e5e5e" stroke-width="4" fill="none"/><defs><path d="M210-169c-67 3-38 105-44 169h-31v-121c0-29-5-50-35-48C34-165 62-65 56 0H25l-1-190h30c1 10-1 24 2 32 10-44 99-50 107 0 11-21 27-35 58-36 85-2 47 119 55 194h-31v-121c0-29-5-49-35-48" id="E"/><path d="M141-36C126-15 110 5 73 4 37 3 15-17 15-53c-1-64 63-63 125-63 3-35-9-54-41-54-24 1-41 7-42 31l-33-3c5-37 33-52 76-52 45 0 72 20 72 64v82c-1 20 7 32 28 27v20c-31 9-61-2-59-35zM48-53c0 20 12 33 32 33 41-3 63-29 60-74-43 2-92-5-92 41" id="F"/><path d="M24-231v-30h32v30H24zM24 0v-190h32V0H24" id="G"/><path d="M117-194c89-4 53 116 60 194h-32v-121c0-31-8-49-39-48C34-167 62-67 57 0H25l-1-190h30c1 10-1 24 2 32 11-22 29-35 61-36" id="H"/><g id="a"><use transform="matrix(0.11790123456790114,0,0,0.11790123456790114,0,0)" xlink:href="#E"/><use transform="matrix(0.11790123456790114,0,0,0.11790123456790114,35.25246913580244,0)" xlink:href="#F"/><use transform="matrix(0.11790123456790114,0,0,0.11790123456790114,58.83271604938267,0)" xlink:href="#G"/><use transform="matrix(0.11790123456790114,0,0,0.11790123456790114,68.14691358024686,0)" xlink:href="#H"/></g><path d="M33-154v-36h34v36H33zM33 0v-36h34V0H33" id="I"/><path d="M96-169c-40 0-48 33-48 73s9 75 48 75c24 0 41-14 43-38l32 2c-6 37-31 61-74 61-59 0-76-41-82-99-10-93 101-131 147-64 4 7 5 14 7 22l-32 3c-4-21-16-35-41-35" id="J"/><path d="M100-194c62-1 85 37 85 99 1 63-27 99-86 99S16-35 15-95c0-66 28-99 85-99zM99-20c44 1 53-31 53-75 0-43-8-75-51-75s-53 32-53 75 10 74 51 75" id="K"/><path d="M59-47c-2 24 18 29 38 22v24C64 9 27 4 27-40v-127H5v-23h24l9-43h21v43h35v23H59v120" id="L"/><path d="M114-163C36-179 61-72 57 0H25l-1-190h30c1 12-1 29 2 39 6-27 23-49 58-41v29" id="M"/><path d="M24 0v-261h32V0H24" id="N"/><path d="M100-194c63 0 86 42 84 106H49c0 40 14 67 53 68 26 1 43-12 49-29l28 8c-11 28-37 45-77 45C44 4 14-33 15-96c1-61 26-98 85-98zm52 81c6-60-76-77-97-28-3 7-6 17-6 28h103" id="O"/><g id="b"><use transform="matrix(0.11790123456790114,0,0,0.11790123456790114,0,0)" xlink:href="#I"/><use transform="matrix(0.11790123456790114,0,0,0.11790123456790114,11.790123456790113,0)" xlink:href="#J"/><use transform="matrix(0.11790123456790114,0,0,0.11790123456790114,33.01234567901231,0)" xlink:href="#K"/><use transform="matrix(0.11790123456790114,0,0,0.11790123456790114,56.59259259259254,0)" xlink:href="#H"/><use transform="matrix(0.11790123456790114,0,0,0.11790123456790114,80.17283950617276,0)" xlink:href="#L"/><use transform="matrix(0.11790123456790114,0,0,0.11790123456790114,91.96296296296288,0)" xlink:href="#M"/><use transform="matrix(0.11790123456790114,0,0,0.11790123456790114,105.99320987654312,0)" xlink:href="#K"/><use transform="matrix(0.11790123456790114,0,0,0.11790123456790114,129.57345679012334,0)" xlink:href="#N"/><use transform="matrix(0.11790123456790114,0,0,0.11790123456790114,138.88765432098754,0)" xlink:href="#N"/><use transform="matrix(0.11790123456790114,0,0,0.11790123456790114,148.20185185185173,0)" xlink:href="#O"/><use transform="matrix(0.11790123456790114,0,0,0.11790123456790114,171.78209876543195,0)" xlink:href="#M"/></g><path d="M84 4C-5 8 30-112 23-190h32v120c0 31 7 50 39 49 72-2 45-101 50-169h31l1 190h-30c-1-10 1-25-2-33-11 22-28 36-60 37" id="P"/><g id="c"><use transform="matrix(0.11172839506172831,0,0,0.11172839506172831,0,0)" xlink:href="#I"/><use transform="matrix(0.11172839506172831,0,0,0.11172839506172831,11.172839506172831,0)" xlink:href="#M"/><use transform="matrix(0.11172839506172831,0,0,0.11172839506172831,24.4685185185185,0)" xlink:href="#P"/><use transform="matrix(0.11172839506172831,0,0,0.11172839506172831,46.81419753086416,0)" xlink:href="#H"/></g><g id="d"><use transform="matrix(0.11790123456790114,0,0,0.11790123456790114,0,0)" xlink:href="#I"/><use transform="matrix(0.11790123456790114,0,0,0.11790123456790114,11.790123456790113,0)" xlink:href="#M"/><use transform="matrix(0.11790123456790114,0,0,0.11790123456790114,25.820370370370348,0)" xlink:href="#K"/><use transform="matrix(0.11790123456790114,0,0,0.11790123456790114,49.400617283950574,0)" xlink:href="#P"/><use transform="matrix(0.11790123456790114,0,0,0.11790123456790114,72.98086419753079,0)" xlink:href="#L"/><use transform="matrix(0.11790123456790114,0,0,0.11790123456790114,84.7709876543209,0)" xlink:href="#O"/><use transform="matrix(0.11790123456790114,0,0,0.11790123456790114,108.35123456790113,0)" xlink:href="#M"/></g><path fill="#333" d="M15-91v-56l181-69v40L49-119l147 57v40" id="Q"/><path fill="#333" d="M190-63c-7 42-38 67-86 67-59 0-84-38-90-98-12-110 154-137 174-36l-49 2c-2-19-15-32-35-32-30 0-35 28-38 64-6 74 65 87 74 30" id="R"/><path fill="#333" d="M135-150c-39-12-60 13-60 57V0H25l-1-190h47c2 13-1 29 3 40 6-28 27-53 61-41v41" id="S"/><path fill="#333" d="M185-48c-13 30-37 53-82 52C43 2 14-33 14-96s30-98 90-98c62 0 83 45 84 108H66c0 31 8 55 39 56 18 0 30-7 34-22zm-45-69c5-46-57-63-70-21-2 6-4 13-4 21h74" id="T"/><path fill="#333" d="M133-34C117-15 103 5 69 4 32 3 11-16 11-54c-1-60 55-63 116-61 1-26-3-47-28-47-18 1-26 9-28 27l-52-2c7-38 36-58 82-57s74 22 75 68l1 82c-1 14 12 18 25 15v27c-30 8-71 5-69-32zm-48 3c29 0 43-24 42-57-32 0-66-3-65 30 0 17 8 27 23 27" id="U"/><path fill="#333" d="M115-3C79 11 28 4 28-45v-112H4v-33h27l15-45h31v45h36v33H77v99c-1 23 16 31 38 25v30" id="V"/><path fill="#333" d="M15-22v-40l146-57-146-57v-40l181 69v56" id="W"/><g id="e"><use transform="matrix(0.09259259259259256,0,0,0.09259259259259256,0,0)" xlink:href="#Q"/><use transform="matrix(0.09259259259259256,0,0,0.09259259259259256,19.444444444444436,0)" xlink:href="#Q"/><use transform="matrix(0.09259259259259256,0,0,0.09259259259259256,38.88888888888887,0)" xlink:href="#R"/><use transform="matrix(0.09259259259259256,0,0,0.09259259259259256,57.40740740740739,0)" xlink:href="#S"/><use transform="matrix(0.09259259259259256,0,0,0.09259259259259256,70.37037037037034,0)" xlink:href="#T"/><use transform="matrix(0.09259259259259256,0,0,0.09259259259259256,88.88888888888886,0)" xlink:href="#U"/><use transform="matrix(0.09259259259259256,0,0,0.09259259259259256,107.40740740740736,0)" xlink:href="#V"/><use transform="matrix(0.09259259259259256,0,0,0.09259259259259256,118.42592592592588,0)" xlink:href="#T"/><use transform="matrix(0.09259259259259256,0,0,0.09259259259259256,136.9444444444444,0)" xlink:href="#W"/><use transform="matrix(0.09259259259259256,0,0,0.09259259259259256,156.38888888888883,0)" xlink:href="#W"/></g><path d="M106-169C34-169 62-67 57 0H25v-261h32l-1 103c12-21 28-36 61-36 89 0 53 116 60 194h-32v-121c2-32-8-49-39-48" id="X"/><path d="M85-194c31 0 48 13 60 33l-1-100h32l1 261h-30c-2-10 0-23-3-31C134-8 116 4 85 4 32 4 16-35 15-94c0-66 23-100 70-100zm9 24c-40 0-46 34-46 75 0 40 6 74 45 74 42 0 51-32 51-76 0-42-9-74-50-73" id="Y"/><g id="f"><use transform="matrix(0.11790123456790114,0,0,0.11790123456790114,0,0)" xlink:href="#I"/><use transform="matrix(0.11790123456790114,0,0,0.11790123456790114,11.790123456790113,0)" xlink:href="#X"/><use transform="matrix(0.11790123456790114,0,0,0.11790123456790114,35.37037037037034,0)" xlink:href="#F"/><use transform="matrix(0.11790123456790114,0,0,0.11790123456790114,58.950617283950564,0)" xlink:href="#H"/><use transform="matrix(0.11790123456790114,0,0,0.11790123456790114,82.53086419753079,0)" xlink:href="#Y"/><use transform="matrix(0.11790123456790114,0,0,0.11790123456790114,106.11111111111101,0)" xlink:href="#N"/><use transform="matrix(0.11790123456790114,0,0,0.11790123456790114,115.4253086419752,0)" xlink:href="#O"/><use transform="matrix(0.11790123456790114,0,0,0.11790123456790114,139.00555555555542,0)" xlink:href="#M"/></g><g id="g"><use transform="matrix(0.11172839506172831,0,0,0.11172839506172831,0,0)" xlink:href="#I"/><use transform="matrix(0.11172839506172831,0,0,0.11172839506172831,11.172839506172831,0)" xlink:href="#M"/><use transform="matrix(0.11172839506172831,0,0,0.11172839506172831,24.4685185185185,0)" xlink:href="#O"/><use transform="matrix(0.11172839506172831,0,0,0.11172839506172831,46.81419753086416,0)" xlink:href="#F"/><use transform="matrix(0.11172839506172831,0,0,0.11172839506172831,69.15987654320983,0)" xlink:href="#Y"/></g><path fill="#333" d="M85 4C-2 5 27-109 22-190h50c7 57-23 150 33 157 60-5 35-97 40-157h50l1 190h-47c-2-12 1-28-3-38-12 25-28 42-61 42" id="Z"/><path fill="#333" d="M135-194c87-1 58 113 63 194h-50c-7-57 23-157-34-157-59 0-34 97-39 157H25l-1-190h47c2 12-1 28 3 38 12-26 28-41 61-42" id="aa"/><path fill="#333" d="M67-93c0 74 22 123 53 168H70C40 30 18-18 18-93s22-123 52-168h50c-32 44-53 94-53 168" id="ab"/><path fill="#333" d="M102-93c0 74-22 123-52 168H0C30 29 54-18 53-93c0-74-22-123-53-168h50c30 45 52 94 52 168" id="ac"/><g id="h"><use transform="matrix(0.0987654320987654,0,0,0.0987654320987654,0,0)" xlink:href="#S"/><use transform="matrix(0.0987654320987654,0,0,0.0987654320987654,13.827160493827156,0)" xlink:href="#Z"/><use transform="matrix(0.0987654320987654,0,0,0.0987654320987654,35.45679012345678,0)" xlink:href="#aa"/><use transform="matrix(0.0987654320987654,0,0,0.0987654320987654,57.0864197530864,0)" xlink:href="#ab"/><use transform="matrix(0.0987654320987654,0,0,0.0987654320987654,68.83950617283949,0)" xlink:href="#ac"/></g><path fill="#333" d="M110-194c64 0 96 36 96 99 0 64-35 99-97 99-61 0-95-36-95-99 0-62 34-99 96-99zm-1 164c35 0 45-28 45-65 0-40-10-65-43-65-34 0-45 26-45 65 0 36 10 65 43 65" id="ad"/><g id="i"><use transform="matrix(0.0987654320987654,0,0,0.0987654320987654,0,0)" xlink:href="#S"/><use transform="matrix(0.0987654320987654,0,0,0.0987654320987654,13.827160493827156,0)" xlink:href="#ad"/><use transform="matrix(0.0987654320987654,0,0,0.0987654320987654,35.45679012345678,0)" xlink:href="#Z"/><use transform="matrix(0.0987654320987654,0,0,0.0987654320987654,57.0864197530864,0)" xlink:href="#V"/><use transform="matrix(0.0987654320987654,0,0,0.0987654320987654,68.83950617283949,0)" xlink:href="#T"/><use transform="matrix(0.0987654320987654,0,0,0.0987654320987654,88.59259259259257,0)" xlink:href="#S"/><use transform="matrix(0.0987654320987654,0,0,0.0987654320987654,102.41975308641972,0)" xlink:href="#ab"/><use transform="matrix(0.0987654320987654,0,0,0.0987654320987654,114.1728395061728,0)" xlink:href="#ac"/></g><path fill="#333" d="M114-157C55-157 80-60 75 0H25v-261h50l-1 109c12-26 28-41 61-42 86-1 58 113 63 194h-50c-7-57 23-157-34-157" id="ae"/><path fill="#333" d="M88-194c31-1 46 15 58 34l-1-101h50l1 261h-48c-2-10 0-23-3-31C134-8 116 4 84 4 32 4 16-41 15-95c0-56 19-97 73-99zm17 164c33 0 40-30 41-66 1-37-9-64-41-64s-38 30-39 65c0 43 13 65 39 65" id="af"/><path fill="#333" d="M25 0v-261h50V0H25" id="ag"/><path fill="#333" d="M76-54c-1 42 2 86-19 110H24C36 42 46 24 48 0H25v-54h51" id="ah"/><g id="j"><use transform="matrix(0.0987654320987654,0,0,0.0987654320987654,0,0)" xlink:href="#ae"/><use transform="matrix(0.0987654320987654,0,0,0.0987654320987654,21.629629629629623,0)" xlink:href="#U"/><use transform="matrix(0.0987654320987654,0,0,0.0987654320987654,41.3827160493827,0)" xlink:href="#aa"/><use transform="matrix(0.0987654320987654,0,0,0.0987654320987654,63.01234567901233,0)" xlink:href="#af"/><use transform="matrix(0.0987654320987654,0,0,0.0987654320987654,84.64197530864195,0)" xlink:href="#ag"/><use transform="matrix(0.0987654320987654,0,0,0.0987654320987654,94.51851851851849,0)" xlink:href="#T"/><use transform="matrix(0.0987654320987654,0,0,0.0987654320987654,114.27160493827157,0)" xlink:href="#S"/><use transform="matrix(0.0987654320987654,0,0,0.0987654320987654,128.09876543209873,0)" xlink:href="#ab"/><use transform="matrix(0.0987654320987654,0,0,0.0987654320987654,139.85185185185182,0)" xlink:href="#R"/><use transform="matrix(0.0987654320987654,0,0,0.0987654320987654,159.6049382716049,0)" xlink:href="#ah"/></g><path fill="#333" d="M231 0h-52l-39-155L100 0H48L-1-190h46L77-45c9-52 24-97 36-145h53l37 145 32-145h46" id="ai"/><path fill="#333" d="M137-138c1-29-70-34-71-4 15 46 118 7 119 86 1 83-164 76-172 9l43-7c4 19 20 25 44 25 33 8 57-30 24-41C81-84 22-81 20-136c-2-80 154-74 161-7" id="aj"/><g id="k"><use transform="matrix(0.0987654320987654,0,0,0.0987654320987654,0,0)" xlink:href="#ai"/><use transform="matrix(0.0987654320987654,0,0,0.0987654320987654,26.370370370370363,0)" xlink:href="#ah"/><use transform="matrix(0.0987654320987654,0,0,0.0987654320987654,36.246913580246904,0)" xlink:href="#aj"/><use transform="matrix(0.0987654320987654,0,0,0.0987654320987654,55.99999999999998,0)" xlink:href="#ac"/></g><path d="M206 0h-36l-40-164L89 0H53L-1-190h32L70-26l43-164h34l41 164 42-164h31" id="ak"/><g id="l"><use transform="matrix(0.11790123456790114,0,0,0.11790123456790114,0,0)" xlink:href="#I"/><use transform="matrix(0.11790123456790114,0,0,0.11790123456790114,11.790123456790113,0)" xlink:href="#ak"/><use transform="matrix(0.11790123456790114,0,0,0.11790123456790114,42.326543209876505,0)" xlink:href="#M"/><use transform="matrix(0.11790123456790114,0,0,0.11790123456790114,56.35679012345674,0)" xlink:href="#G"/><use transform="matrix(0.11790123456790114,0,0,0.11790123456790114,65.67098765432092,0)" xlink:href="#L"/><use transform="matrix(0.11790123456790114,0,0,0.11790123456790114,77.46111111111104,0)" xlink:href="#O"/></g><g id="m"><use transform="matrix(0.0987654320987654,0,0,0.0987654320987654,0,0)" xlink:href="#Q"/><use transform="matrix(0.0987654320987654,0,0,0.0987654320987654,20.740740740740733,0)" xlink:href="#Q"/><use transform="matrix(0.0987654320987654,0,0,0.0987654320987654,41.48148148148147,0)" xlink:href="#R"/><use transform="matrix(0.0987654320987654,0,0,0.0987654320987654,61.234567901234534,0)" xlink:href="#S"/><use transform="matrix(0.0987654320987654,0,0,0.0987654320987654,75.06172839506169,0)" xlink:href="#T"/><use transform="matrix(0.0987654320987654,0,0,0.0987654320987654,94.81481481481477,0)" xlink:href="#U"/><use transform="matrix(0.0987654320987654,0,0,0.0987654320987654,114.56790123456784,0)" xlink:href="#V"/><use transform="matrix(0.0987654320987654,0,0,0.0987654320987654,126.32098765432092,0)" xlink:href="#T"/><use transform="matrix(0.0987654320987654,0,0,0.0987654320987654,146.07407407407402,0)" xlink:href="#W"/><use transform="matrix(0.0987654320987654,0,0,0.0987654320987654,166.81481481481475,0)" xlink:href="#W"/></g><g id="n"><use transform="matrix(0.11790123456790114,0,0,0.11790123456790114,0,0)" xlink:href="#I"/><use transform="matrix(0.11790123456790114,0,0,0.11790123456790114,11.790123456790113,0)" xlink:href="#Y"/><use transform="matrix(0.11790123456790114,0,0,0.11790123456790114,35.37037037037034,0)" xlink:href="#F"/><use transform="matrix(0.11790123456790114,0,0,0.11790123456790114,58.950617283950564,0)" xlink:href="#L"/><use transform="matrix(0.11790123456790114,0,0,0.11790123456790114,70.74074074074068,0)" xlink:href="#F"/></g><path fill="#333" d="M25-224v-37h50v37H25zM25 0v-190h50V0H25" id="al"/><path fill="#333" d="M84 4C32 4 15-41 15-95c0-55 18-99 73-99 29 0 47 12 58 34l2-30h48l-1 265h-49V-32C136-9 114 4 84 4zm21-34c32 0 41-29 41-66 0-36-9-64-40-64-33 0-39 30-40 65 0 43 13 65 39 65" id="am"/><path fill="#333" d="M238-95c0 69-44 99-111 99C63 4 22-25 22-93v-155h51v151c-1 38 19 59 55 60 90 1 49-130 58-211h52v153" id="an"/><path fill="#333" d="M220-157c-53 9-28 100-34 157h-49v-107c1-27-5-49-29-50C55-147 81-57 75 0H25l-1-190h47c2 12-1 28 3 38 10-53 101-56 108 0 13-22 24-43 59-42 82 1 51 116 57 194h-49v-107c-1-25-5-48-29-50" id="ao"/><g id="o"><use transform="matrix(0.0987654320987654,0,0,0.0987654320987654,0,0)" xlink:href="#Z"/><use transform="matrix(0.0987654320987654,0,0,0.0987654320987654,21.629629629629623,0)" xlink:href="#aa"/><use transform="matrix(0.0987654320987654,0,0,0.0987654320987654,43.259259259259245,0)" xlink:href="#al"/><use transform="matrix(0.0987654320987654,0,0,0.0987654320987654,53.13580246913578,0)" xlink:href="#am"/><use transform="matrix(0.0987654320987654,0,0,0.0987654320987654,74.7654320987654,0)" xlink:href="#Z"/><use transform="matrix(0.0987654320987654,0,0,0.0987654320987654,96.39506172839502,0)" xlink:href="#T"/><use transform="matrix(0.0987654320987654,0,0,0.0987654320987654,116.14814814814808,0)" xlink:href="#an"/><use transform="matrix(0.0987654320987654,0,0,0.0987654320987654,141.72839506172835,0)" xlink:href="#aj"/><use transform="matrix(0.0987654320987654,0,0,0.0987654320987654,161.48148148148144,0)" xlink:href="#T"/><use transform="matrix(0.0987654320987654,0,0,0.0987654320987654,181.23456790123453,0)" xlink:href="#S"/><use transform="matrix(0.0987654320987654,0,0,0.0987654320987654,195.0617283950617,0)" xlink:href="#ab"/><use transform="matrix(0.0987654320987654,0,0,0.0987654320987654,206.81481481481478,0)" xlink:href="#aa"/><use transform="matrix(0.0987654320987654,0,0,0.0987654320987654,228.4444444444444,0)" xlink:href="#U"/><use transform="matrix(0.0987654320987654,0,0,0.0987654320987654,248.1975308641975,0)" xlink:href="#ao"/><use transform="matrix(0.0987654320987654,0,0,0.0987654320987654,279.8024691358024,0)" xlink:href="#T"/><use transform="matrix(0.0987654320987654,0,0,0.0987654320987654,299.5555555555555,0)" xlink:href="#ac"/></g><g id="p"><use transform="matrix(0.0987654320987654,0,0,0.0987654320987654,0,0)" xlink:href="#aj"/><use transform="matrix(0.0987654320987654,0,0,0.0987654320987654,19.753086419753078,0)" xlink:href="#V"/><use transform="matrix(0.0987654320987654,0,0,0.0987654320987654,31.506172839506164,0)" xlink:href="#U"/><use transform="matrix(0.0987654320987654,0,0,0.0987654320987654,51.259259259259245,0)" xlink:href="#V"/><use transform="matrix(0.0987654320987654,0,0,0.0987654320987654,63.01234567901233,0)" xlink:href="#T"/></g><path fill="#333" d="M195-6C206 82 75 100 31 46c-4-6-6-13-8-21l49-6c3 16 16 24 34 25 40 0 42-37 40-79-11 22-30 35-61 35-53 0-70-43-70-97 0-56 18-96 73-97 30 0 46 14 59 34l2-30h47zm-90-29c32 0 41-27 41-63 0-35-9-62-40-62-32 0-39 29-40 63 0 36 9 62 39 62" id="ap"/><g id="q"><use transform="matrix(0.0987654320987654,0,0,0.0987654320987654,0,0)" xlink:href="#ag"/><use transform="matrix(0.0987654320987654,0,0,0.0987654320987654,9.876543209876539,0)" xlink:href="#ad"/><use transform="matrix(0.0987654320987654,0,0,0.0987654320987654,31.506172839506164,0)" xlink:href="#ap"/><use transform="matrix(0.0987654320987654,0,0,0.0987654320987654,53.13580246913578,0)" xlink:href="#al"/><use transform="matrix(0.0987654320987654,0,0,0.0987654320987654,63.01234567901233,0)" xlink:href="#aa"/></g><path fill="#333" d="M14-72v-43h91v43H14" id="aq"/><g id="r"><use transform="matrix(0.0987654320987654,0,0,0.0987654320987654,0,0)" xlink:href="#Q"/><use transform="matrix(0.0987654320987654,0,0,0.0987654320987654,20.740740740740733,0)" xlink:href="#aq"/></g><g id="s"><use transform="matrix(0.0987654320987654,0,0,0.0987654320987654,0,0)" xlink:href="#Z"/><use transform="matrix(0.0987654320987654,0,0,0.0987654320987654,21.629629629629623,0)" xlink:href="#aj"/><use transform="matrix(0.0987654320987654,0,0,0.0987654320987654,41.3827160493827,0)" xlink:href="#T"/><use transform="matrix(0.0987654320987654,0,0,0.0987654320987654,61.13580246913578,0)" xlink:href="#S"/></g><g id="t"><use transform="matrix(0.0987654320987654,0,0,0.0987654320987654,0,0)" xlink:href="#U"/><use transform="matrix(0.0987654320987654,0,0,0.0987654320987654,19.753086419753078,0)" xlink:href="#af"/><use transform="matrix(0.0987654320987654,0,0,0.0987654320987654,41.3827160493827,0)" xlink:href="#af"/><use transform="matrix(0.0987654320987654,0,0,0.0987654320987654,63.01234567901233,0)" xlink:href="#an"/><use transform="matrix(0.0987654320987654,0,0,0.0987654320987654,88.59259259259257,0)" xlink:href="#aj"/><use transform="matrix(0.0987654320987654,0,0,0.0987654320987654,108.34567901234564,0)" xlink:href="#T"/><use transform="matrix(0.0987654320987654,0,0,0.0987654320987654,128.09876543209873,0)" xlink:href="#S"/><use transform="matrix(0.0987654320987654,0,0,0.0987654320987654,141.9259259259259,0)" xlink:href="#ab"/><use transform="matrix(0.0987654320987654,0,0,0.0987654320987654,153.67901234567898,0)" xlink:href="#Z"/><use transform="matrix(0.0987654320987654,0,0,0.0987654320987654,175.3086419753086,0)" xlink:href="#aj"/><use transform="matrix(0.0987654320987654,0,0,0.0987654320987654,195.0617283950617,0)" xlink:href="#T"/><use transform="matrix(0.0987654320987654,0,0,0.0987654320987654,214.81481481481478,0)" xlink:href="#S"/><use transform="matrix(0.0987654320987654,0,0,0.0987654320987654,228.64197530864195,0)" xlink:href="#ac"/></g><path fill="#333" d="M135-194c52 0 70 43 70 98 0 56-19 99-73 100-30 1-46-15-58-35L72 0H24l1-261h50v104c11-23 29-37 60-37zM114-30c31 0 40-27 40-66 0-37-7-63-39-63s-41 28-41 65c0 36 8 64 40 64" id="ar"/><g id="u"><use transform="matrix(0.0987654320987654,0,0,0.0987654320987654,0,0)" xlink:href="#ar"/><use transform="matrix(0.0987654320987654,0,0,0.0987654320987654,21.629629629629623,0)" xlink:href="#S"/><use transform="matrix(0.0987654320987654,0,0,0.0987654320987654,35.45679012345678,0)" xlink:href="#ad"/><use transform="matrix(0.0987654320987654,0,0,0.0987654320987654,57.0864197530864,0)" xlink:href="#U"/><use transform="matrix(0.0987654320987654,0,0,0.0987654320987654,76.83950617283948,0)" xlink:href="#af"/><use transform="matrix(0.0987654320987654,0,0,0.0987654320987654,98.4691358024691,0)" xlink:href="#R"/><use transform="matrix(0.0987654320987654,0,0,0.0987654320987654,118.22222222222219,0)" xlink:href="#U"/><use transform="matrix(0.0987654320987654,0,0,0.0987654320987654,137.97530864197526,0)" xlink:href="#aj"/><use transform="matrix(0.0987654320987654,0,0,0.0987654320987654,157.72839506172835,0)" xlink:href="#V"/></g><g id="v"><use transform="matrix(0.0987654320987654,0,0,0.0987654320987654,0,0)" xlink:href="#ao"/><use transform="matrix(0.0987654320987654,0,0,0.0987654320987654,31.60493827160493,0)" xlink:href="#T"/><use transform="matrix(0.0987654320987654,0,0,0.0987654320987654,51.358024691358004,0)" xlink:href="#aj"/><use transform="matrix(0.0987654320987654,0,0,0.0987654320987654,71.11111111111109,0)" xlink:href="#aj"/><use transform="matrix(0.0987654320987654,0,0,0.0987654320987654,90.86419753086416,0)" xlink:href="#U"/><use transform="matrix(0.0987654320987654,0,0,0.0987654320987654,110.61728395061722,0)" xlink:href="#ap"/><use transform="matrix(0.0987654320987654,0,0,0.0987654320987654,132.24691358024685,0)" xlink:href="#T"/></g><path fill="#333" d="M121-226c-27-7-43 5-38 36h38v33H83V0H34v-157H6v-33h28c-9-59 32-81 87-68v32" id="as"/><g id="w"><use transform="matrix(0.0987654320987654,0,0,0.0987654320987654,0,0)" xlink:href="#as"/><use transform="matrix(0.0987654320987654,0,0,0.0987654320987654,11.753086419753082,0)" xlink:href="#Z"/><use transform="matrix(0.0987654320987654,0,0,0.0987654320987654,33.38271604938271,0)" xlink:href="#aa"/><use transform="matrix(0.0987654320987654,0,0,0.0987654320987654,55.01234567901233,0)" xlink:href="#R"/><use transform="matrix(0.0987654320987654,0,0,0.0987654320987654,74.7654320987654,0)" xlink:href="#ab"/><use transform="matrix(0.0987654320987654,0,0,0.0987654320987654,86.51851851851848,0)" xlink:href="#ac"/></g><g id="x"><use transform="matrix(0.0987654320987654,0,0,0.0987654320987654,0,0)" xlink:href="#ag"/><use transform="matrix(0.0987654320987654,0,0,0.0987654320987654,9.876543209876539,0)" xlink:href="#ad"/><use transform="matrix(0.0987654320987654,0,0,0.0987654320987654,31.506172839506164,0)" xlink:href="#ap"/><use transform="matrix(0.0987654320987654,0,0,0.0987654320987654,53.13580246913578,0)" xlink:href="#ad"/><use transform="matrix(0.0987654320987654,0,0,0.0987654320987654,74.7654320987654,0)" xlink:href="#Z"/><use transform="matrix(0.0987654320987654,0,0,0.0987654320987654,96.39506172839502,0)" xlink:href="#V"/></g><path fill="#333" d="M230 0l2-204L168 0h-37L68-204 70 0H24v-248h70l56 185 57-185h69V0h-46" id="at"/><path fill="#333" d="M140-251c80 0 125 45 125 126 0 70-33 111-92 124 6 28 34 38 68 31l-1 36C177 83 129 55 120 2 51-6 15-50 15-125c0-81 44-126 125-126zm-1 214c52 0 73-35 73-88 0-50-21-86-72-86-52 0-73 35-73 86s22 88 72 88" id="au"/><g id="y"><use transform="matrix(0.09777790123456787,0,0,0.09777790123456787,0,0)" xlink:href="#U"/><use transform="matrix(0.09777790123456787,0,0,0.09777790123456787,19.55558024691357,0)" xlink:href="#af"/><use transform="matrix(0.09777790123456787,0,0,0.09777790123456787,40.968940617283934,0)" xlink:href="#af"/><use transform="matrix(0.09777790123456787,0,0,0.09777790123456787,62.3823009876543,0)" xlink:href="#at"/><use transform="matrix(0.09777790123456787,0,0,0.09777790123456787,91.61789345679009,0)" xlink:href="#T"/><use transform="matrix(0.09777790123456787,0,0,0.09777790123456787,111.17347370370364,0)" xlink:href="#aj"/><use transform="matrix(0.09777790123456787,0,0,0.09777790123456787,130.7290539506172,0)" xlink:href="#aj"/><use transform="matrix(0.09777790123456787,0,0,0.09777790123456787,150.28463419753078,0)" xlink:href="#U"/><use transform="matrix(0.09777790123456787,0,0,0.09777790123456787,169.84021444444434,0)" xlink:href="#ap"/><use transform="matrix(0.09777790123456787,0,0,0.09777790123456787,191.2535748148147,0)" xlink:href="#T"/><use transform="matrix(0.09777790123456787,0,0,0.09777790123456787,210.80915506172826,0)" xlink:href="#au"/><use transform="matrix(0.09777790123456787,0,0,0.09777790123456787,238.18696740740728,0)" xlink:href="#Z"/><use transform="matrix(0.09777790123456787,0,0,0.09777790123456787,259.60032777777764,0)" xlink:href="#T"/><use transform="matrix(0.09777790123456787,0,0,0.09777790123456787,279.1559080246912,0)" xlink:href="#Z"/><use transform="matrix(0.09777790123456787,0,0,0.09777790123456787,300.56926839506156,0)" xlink:href="#T"/><use transform="matrix(0.09777790123456787,0,0,0.09777790123456787,320.1248486419751,0)" xlink:href="#ab"/><use transform="matrix(0.09777790123456787,0,0,0.09777790123456787,331.7604188888887,0)" xlink:href="#ao"/><use transform="matrix(0.09777790123456787,0,0,0.09777790123456787,363.0493472839504,0)" xlink:href="#T"/><use transform="matrix(0.09777790123456787,0,0,0.09777790123456787,382.60492753086396,0)" xlink:href="#aj"/><use transform="matrix(0.09777790123456787,0,0,0.09777790123456787,402.1605077777775,0)" xlink:href="#aj"/><use transform="matrix(0.09777790123456787,0,0,0.09777790123456787,421.7160880246911,0)" xlink:href="#U"/><use transform="matrix(0.09777790123456787,0,0,0.09777790123456787,441.2716682716047,0)" xlink:href="#ap"/><use transform="matrix(0.09777790123456787,0,0,0.09777790123456787,462.68502864197507,0)" xlink:href="#T"/><use transform="matrix(0.09777790123456787,0,0,0.09777790123456787,482.2406088888885,0)" xlink:href="#ac"/></g><path fill="#333" d="M24 0v-54h51V0H24" id="av"/><g id="z"><use transform="matrix(0.0987654320987654,0,0,0.0987654320987654,0,0)" xlink:href="#Z"/><use transform="matrix(0.0987654320987654,0,0,0.0987654320987654,21.629629629629623,0)" xlink:href="#aj"/><use transform="matrix(0.0987654320987654,0,0,0.0987654320987654,41.3827160493827,0)" xlink:href="#T"/><use transform="matrix(0.0987654320987654,0,0,0.0987654320987654,61.13580246913578,0)" xlink:href="#S"/><use transform="matrix(0.0987654320987654,0,0,0.0987654320987654,72.98765432098763,0)" xlink:href="#av"/><use transform="matrix(0.0987654320987654,0,0,0.0987654320987654,82.86419753086417,0)" xlink:href="#at"/><use transform="matrix(0.0987654320987654,0,0,0.0987654320987654,112.39506172839502,0)" xlink:href="#T"/><use transform="matrix(0.0987654320987654,0,0,0.0987654320987654,132.14814814814812,0)" xlink:href="#aj"/><use transform="matrix(0.0987654320987654,0,0,0.0987654320987654,151.9012345679012,0)" xlink:href="#aj"/><use transform="matrix(0.0987654320987654,0,0,0.0987654320987654,171.6543209876543,0)" xlink:href="#U"/><use transform="matrix(0.0987654320987654,0,0,0.0987654320987654,191.4074074074074,0)" xlink:href="#ap"/><use transform="matrix(0.0987654320987654,0,0,0.0987654320987654,213.037037037037,0)" xlink:href="#T"/></g><g id="A"><use transform="matrix(0.0987654320987654,0,0,0.0987654320987654,0,0)" xlink:href="#ao"/><use transform="matrix(0.0987654320987654,0,0,0.0987654320987654,31.60493827160493,0)" xlink:href="#T"/><use transform="matrix(0.0987654320987654,0,0,0.0987654320987654,51.358024691358004,0)" xlink:href="#aj"/><use transform="matrix(0.0987654320987654,0,0,0.0987654320987654,71.11111111111109,0)" xlink:href="#aj"/><use transform="matrix(0.0987654320987654,0,0,0.0987654320987654,90.86419753086416,0)" xlink:href="#U"/><use transform="matrix(0.0987654320987654,0,0,0.0987654320987654,110.61728395061722,0)" xlink:href="#ap"/><use transform="matrix(0.0987654320987654,0,0,0.0987654320987654,132.24691358024685,0)" xlink:href="#T"/></g><g id="B"><use transform="matrix(0.0987654320987654,0,0,0.0987654320987654,0,0)" xlink:href="#R"/><use transform="matrix(0.0987654320987654,0,0,0.0987654320987654,19.753086419753078,0)" xlink:href="#ag"/><use transform="matrix(0.0987654320987654,0,0,0.0987654320987654,29.62962962962962,0)" xlink:href="#ad"/><use transform="matrix(0.0987654320987654,0,0,0.0987654320987654,51.259259259259245,0)" xlink:href="#aj"/><use transform="matrix(0.0987654320987654,0,0,0.0987654320987654,71.01234567901231,0)" xlink:href="#T"/><use transform="matrix(0.0987654320987654,0,0,0.0987654320987654,90.76543209876539,0)" xlink:href="#ab"/><use transform="matrix(0.0987654320987654,0,0,0.0987654320987654,102.51851851851849,0)" xlink:href="#ac"/></g><g id="C"><use transform="matrix(0.0987654320987654,0,0,0.0987654320987654,0,0)" xlink:href="#af"/><use transform="matrix(0.0987654320987654,0,0,0.0987654320987654,21.629629629629623,0)" xlink:href="#T"/><use transform="matrix(0.0987654320987654,0,0,0.0987654320987654,41.3827160493827,0)" xlink:href="#ag"/><use transform="matrix(0.0987654320987654,0,0,0.0987654320987654,51.259259259259245,0)" xlink:href="#T"/><use transform="matrix(0.0987654320987654,0,0,0.0987654320987654,71.01234567901231,0)" xlink:href="#V"/><use transform="matrix(0.0987654320987654,0,0,0.0987654320987654,82.76543209876539,0)" xlink:href="#T"/><use transform="matrix(0.0987654320987654,0,0,0.0987654320987654,102.51851851851846,0)" xlink:href="#an"/><use transform="matrix(0.0987654320987654,0,0,0.0987654320987654,128.0987654320987,0)" xlink:href="#aj"/><use transform="matrix(0.0987654320987654,0,0,0.0987654320987654,147.8518518518518,0)" xlink:href="#T"/><use transform="matrix(0.0987654320987654,0,0,0.0987654320987654,167.60493827160488,0)" xlink:href="#S"/><use transform="matrix(0.0987654320987654,0,0,0.0987654320987654,181.43209876543204,0)" xlink:href="#ab"/><use transform="matrix(0.0987654320987654,0,0,0.0987654320987654,193.18518518518513,0)" xlink:href="#Z"/><use transform="matrix(0.0987654320987654,0,0,0.0987654320987654,214.81481481481475,0)" xlink:href="#aj"/><use transform="matrix(0.0987654320987654,0,0,0.0987654320987654,234.5679012345678,0)" xlink:href="#T"/><use transform="matrix(0.0987654320987654,0,0,0.0987654320987654,254.32098765432096,0)" xlink:href="#S"/><use transform="matrix(0.0987654320987654,0,0,0.0987654320987654,268.1481481481481,0)" xlink:href="#ac"/></g></defs></g></svg>