<svg xmlns="http://www.w3.org/2000/svg" xmlns:xlink="http://www.w3.org/1999/xlink" xmlns:lucid="lucid" width="385" height="391"><g transform="translate(-255 -100)" lucid:page-tab-id="xKkuOel6gt5C"><path d="M0 0h1870.87v1322.83H0z" fill="#fff"/><path d="M275 126c0-3.3 2.7-6 6-6h138c3.3 0 6 2.7 6 6v48c0 3.3-2.7 6-6 6H281c-3.3 0-6-2.7-6-6z" stroke="#5e5e5e" stroke-width="3" fill="#c1e4f7"/><use xlink:href="#a" transform="matrix(1,0,0,1,275,120) translate(42.21549382716049 36.511111111111106)"/><path d="M330 239c0-3.3 2.7-6 6-6h28c3.3 0 6 2.7 6 6v195c0 3.3-2.7 6-6 6h-28c-3.3 0-6-2.7-6-6z" stroke="#5e5e5e" stroke-width="3" fill="#fff"/><path d="M350 182.5v2.88m0 3.84v5.76m0 3.84v5.76m0 3.84v5.76m0 3.84v5.76m0 3.84v2.88" stroke="#000" stroke-width="2" fill="none"/><path d="M351 182.53h-2v-1.03h2"/><path d="M350 230.47v1.03" stroke="#000" stroke-width="2" fill="none"/><path d="M496 239c0-3.3 2.7-6 6-6h112c3.3 0 6 2.7 6 6v48c0 3.3-2.7 6-6 6H502c-3.3 0-6-2.7-6-6z" stroke="#5e5e5e" stroke-width="3" fill="#ffdba9"/><use xlink:href="#b" transform="matrix(1,0,0,1,496,233) translate(30.709320987654323 36.511111111111106)"/><path d="M372.5 261H476" stroke="#5e5e5e" stroke-width="2" fill="none"/><path d="M372.53 262h-1.03v-2h1.03" fill="#5e5e5e"/><path d="M491.26 261L477 265.6v-9.27z" stroke="#5e5e5e" stroke-width="2" fill="#5e5e5e"/><use xlink:href="#c" transform="matrix(1,0,0,1,403.25951872817046,235.66666666666666) translate(0.004999999999999005 14.222222222222223)"/><path d="M538 339c0-3.3 2.7-6 6-6h28c3.3 0 6 2.7 6 6v68c0 3.3-2.7 6-6 6h-28c-3.3 0-6-2.7-6-6z" stroke="#5e5e5e" stroke-width="3" fill="#fff"/><path d="M558 330.5v-2.63m0-3.5v-5.25m0-3.5v-5.25m0-3.5v-5.25m0-3.5v-2.62" stroke="#000" stroke-width="2" fill="none"/><path d="M559 331.5h-2v-1.03h2M559 295.53h-2v-1.03h2"/><path d="M536.1 409.4H390" stroke="#5e5e5e" stroke-width="2" fill="none"/><path d="M537.37 410.4h-1.3v-2h.75" fill="#5e5e5e"/><path d="M374.74 409.4l14.26-4.64v9.27z" stroke="#5e5e5e" stroke-width="2" fill="#5e5e5e"/><use xlink:href="#d" transform="matrix(1,0,0,1,414.73069801098245,384.06454406600835) translate(0.005000000000000782 14.222222222222223)"/><path d="M350 442.5v2.74m0 3.65v5.46m0 3.65v5.5m0 3.64v5.47m0 3.66V479" stroke="#000" stroke-width="2" fill="none"/><path d="M351 442.53h-2v-1.03h2"/><path d="M350 478.97V480M558 415.5v3.18m0 4.23v6.36m0 4.23v6.34m0 4.24v6.35m0 4.23V461m0 4.24v6.35m0 4.22V479" stroke="#000" stroke-width="2" fill="none"/><path d="M559 415.53h-2v-1.03h2"/><path d="M558 478.97V480" stroke="#000" stroke-width="2" fill="none"/><defs><path d="M33-154v-36h34v36H33zM33 0v-36h34V0H33" id="e"/><path d="M210-169c-67 3-38 105-44 169h-31v-121c0-29-5-50-35-48C34-165 62-65 56 0H25l-1-190h30c1 10-1 24 2 32 10-44 99-50 107 0 11-21 27-35 58-36 85-2 47 119 55 194h-31v-121c0-29-5-49-35-48" id="f"/><path d="M141-36C126-15 110 5 73 4 37 3 15-17 15-53c-1-64 63-63 125-63 3-35-9-54-41-54-24 1-41 7-42 31l-33-3c5-37 33-52 76-52 45 0 72 20 72 64v82c-1 20 7 32 28 27v20c-31 9-61-2-59-35zM48-53c0 20 12 33 32 33 41-3 63-29 60-74-43 2-92-5-92 41" id="g"/><path d="M24-231v-30h32v30H24zM24 0v-190h32V0H24" id="h"/><path d="M117-194c89-4 53 116 60 194h-32v-121c0-31-8-49-39-48C34-167 62-67 57 0H25l-1-190h30c1 10-1 24 2 32 11-22 29-35 61-36" id="i"/><g id="a"><use transform="matrix(0.07469135802469135,0,0,0.07469135802469135,0,0)" xlink:href="#e"/><use transform="matrix(0.07469135802469135,0,0,0.07469135802469135,7.469135802469134,0)" xlink:href="#f"/><use transform="matrix(0.07469135802469135,0,0,0.07469135802469135,29.801851851851843,0)" xlink:href="#g"/><use transform="matrix(0.07469135802469135,0,0,0.07469135802469135,44.740123456790116,0)" xlink:href="#h"/><use transform="matrix(0.07469135802469135,0,0,0.07469135802469135,50.64074074074073,0)" xlink:href="#i"/></g><path d="M96-169c-40 0-48 33-48 73s9 75 48 75c24 0 41-14 43-38l32 2c-6 37-31 61-74 61-59 0-76-41-82-99-10-93 101-131 147-64 4 7 5 14 7 22l-32 3c-4-21-16-35-41-35" id="j"/><path d="M106-169C34-169 62-67 57 0H25v-261h32l-1 103c12-21 28-36 61-36 89 0 53 116 60 194h-32v-121c2-32-8-49-39-48" id="k"/><path d="M24 0v-261h32V0H24" id="l"/><path d="M85-194c31 0 48 13 60 33l-1-100h32l1 261h-30c-2-10 0-23-3-31C134-8 116 4 85 4 32 4 16-35 15-94c0-66 23-100 70-100zm9 24c-40 0-46 34-46 75 0 40 6 74 45 74 42 0 51-32 51-76 0-42-9-74-50-73" id="m"/><g id="b"><use transform="matrix(0.07469135802469135,0,0,0.07469135802469135,0,0)" xlink:href="#e"/><use transform="matrix(0.07469135802469135,0,0,0.07469135802469135,7.469135802469134,0)" xlink:href="#j"/><use transform="matrix(0.07469135802469135,0,0,0.07469135802469135,20.913580246913575,0)" xlink:href="#k"/><use transform="matrix(0.07469135802469135,0,0,0.07469135802469135,35.85185185185185,0)" xlink:href="#h"/><use transform="matrix(0.07469135802469135,0,0,0.07469135802469135,41.752469135802464,0)" xlink:href="#l"/><use transform="matrix(0.07469135802469135,0,0,0.07469135802469135,47.65308641975308,0)" xlink:href="#m"/></g><path fill="#333" d="M121-226c-27-7-43 5-38 36h38v33H83V0H34v-157H6v-33h28c-9-59 32-81 87-68v32" id="n"/><path fill="#333" d="M110-194c64 0 96 36 96 99 0 64-35 99-97 99-61 0-95-36-95-99 0-62 34-99 96-99zm-1 164c35 0 45-28 45-65 0-40-10-65-43-65-34 0-45 26-45 65 0 36 10 65 43 65" id="o"/><path fill="#333" d="M135-150c-39-12-60 13-60 57V0H25l-1-190h47c2 13-1 29 3 40 6-28 27-53 61-41v41" id="p"/><path fill="#333" d="M147 0L96-86 75-71V0H25v-261h50v150l67-79h53l-66 74L201 0h-54" id="q"/><g id="c"><use transform="matrix(0.04938271604938272,0,0,0.04938271604938272,0,0)" xlink:href="#n"/><use transform="matrix(0.04938271604938272,0,0,0.04938271604938272,5.8765432098765435,0)" xlink:href="#o"/><use transform="matrix(0.04938271604938272,0,0,0.04938271604938272,16.691358024691358,0)" xlink:href="#p"/><use transform="matrix(0.04938271604938272,0,0,0.04938271604938272,23.604938271604937,0)" xlink:href="#q"/></g><path fill="#333" d="M25-224v-37h50v37H25zM75 22c2 45-34 59-81 51V38c22 5 31-5 31-27v-201h50V22" id="r"/><path fill="#333" d="M25-224v-37h50v37H25zM25 0v-190h50V0H25" id="s"/><path fill="#333" d="M135-194c87-1 58 113 63 194h-50c-7-57 23-157-34-157-59 0-34 97-39 157H25l-1-190h47c2 12-1 28 3 38 12-26 28-41 61-42" id="t"/><g id="d"><use transform="matrix(0.04938271604938272,0,0,0.04938271604938272,0,0)" xlink:href="#r"/><use transform="matrix(0.04938271604938272,0,0,0.04938271604938272,4.938271604938272,0)" xlink:href="#o"/><use transform="matrix(0.04938271604938272,0,0,0.04938271604938272,15.753086419753087,0)" xlink:href="#s"/><use transform="matrix(0.04938271604938272,0,0,0.04938271604938272,20.69135802469136,0)" xlink:href="#t"/></g></defs></g></svg>